<svg xmlns="http://www.w3.org/2000/svg" viewBox="0 0 50800 50800" fill-rule="evenodd" clip-rule="evenodd" shape-rendering="geometricPrecision" text-rendering="geometricPrecision" image-rendering="optimizeQuality"><defs><style>.fil0{fill:#000}</style></defs><path class="fil0" d="M3494 38961c20-11 40-188 255-65 247 141 98 35 194 322-451-108-213 41-449-257zm703-163c-111-199-195 278-26-651 22-124 19-256 53-347 180-471-35-42 208-264 133 307 116 1081-235 1262zm-258-104l-345 59 503-1507c114 205-85 1253-158 1448zm-673-271c4-342 13-492 62-809l68-537c83-324 34-114 105-236 249 143 192-153 214 311 0 5-76 383-84 423-92 448-81 551-365 848zm41433-1063c-478-45-533 14-646-387 266-322 681-408 1047-100l-401 487zm-40204-80c-72-95-239 132-62-643 19-82 53-266 74-331 165-511 29-155 203-326l333 161c-74 308-133 396-222 652-8 22-94 294-97 301-133 224 5 93-229 186zm17391-516l-1027 584c153-1131 317-1172 1194-1506l-167 922zm24825-627c254 61 98-5 141 247-470 531-489 888-1395 670-16-362 70-348 52-554-23-254-119-158-50-652 472-472 1616-1364 1600 42-159 136-140 118-348 247zm-42615 43l-14-617c354 152 434 241 333 515-105 38 26 324-179-159-64 601 19 85-140 261zm16504 82c147-1056 241-936 638-1093-229 981-229 988-638 1093zm600-282c39-360 153-880 375-1119 204-220 725-579 957-684-154 1247-335 1364-1332 1803zm-393-891c231-760-9-1073 825-1344-115 655-195 1188-825 1344zm837-573c43-309 188-938 344-1129 113-139 717-525 922-617-36 356-138 885-334 1106-17 19-349 273-385 303-95 79-113 114-219 181-246 157-79 53-328 156zm24113-2416c90-172-153-52 252-251 177-87 270-91 436-120 87 520 52 430-482 562l-206-191zm-23512 806c84-362 224-632 147-999 403-138 288-214 753-362-107 856-191 1115-900 1361zm21814-1896c-195-366-36-244 422-496 406-224 404-373 591 96l-782 430c-312 78-136 16-231-30zm1018-798c343-294 281-381 477-6 48-497 96-382 210-490 285 281 412 920 456 1436l-683 213c-71-409-310-893-460-1153zm-1525-529l918-454c148 240 280 575 327 883l-812 509c-278-308-321-538-433-938zM4794 31204c-31 46-60 52-104 191l-409 1887c-1 10 23 230 20 296-29 809-356 1785-401 2800 191-348 101-111 196-198-7 850-317-296-120 767-182-137-317-204-489-372 78-765 390-1495 387-2284l1416-6877c238 371 42 404-56 822l-440 2968zm36653-9443c21-17 53-72 65-52l1070-535 337 673-1141 565c-105-245-231-460-331-651zm-637-994l865-708c88-84 74-84 145-157l169-164 530 1217c-315 284-780 510-1219 586-191-299-329-532-490-774zm-1240-2280c588-188 1028-528 1627-610 119 296 705 1551 660 1762-27 124-777 728-1210 871l-1077-2023zm1797-703l809-418c483 644 2715 7153 3414 8554 223 449 255 897 471 1313 503 964 889 2233 1325 3277l-446 284c-211 112-286 130-490 188-206-424-201-991-503-1334 104-329 117-226 234-556l-323 224c-590 445-436 485-912 629l-282-821c557-508 1116-560 1431-1255-543 283-880 811-1550 998-95-366-275-1052-583-1277l454 1423c-280 244-574 413-921 480-212-615-401-1098-602-1667 619-442 800-464 1110-275-38-424-155-662-397-878l132 587-851 358c-220-277-300-634-367-1035 627-144 2070-718 2124-1313-602 459-1226 898-2162 1154l-430-1219c340-60 737-213 1030-359 157-79 277-167 446-250l-469-2c-80-344-250-562-397-844 18-19 44-75 53-56l241-174c132-66 235-86 370-132-133-80 228-234-347-48-66 21-262 135-397 184l-636-948 1041-533 851 1913c-14-514-465-1511-662-1897l289-345c-428-110-233 331-716-674 135-115 127-86 225-173 16-14 42-33 57-48l-337-7c-246-400-1272-2671-1327-3028zm-4014-7820c359-377 1415-814 1978-915l168 936c475-166 65-753-25-966 350 115 452 248 556 877-446 385-1994 1251-2591 1366 206 8 582-106 760-155 1245-351 479-242 751-83-769 936-7472 2235-9225 2466-2539 335-3244 205-5445 352-1018 68-1650 43-2680-16l-2192-65c-655-16-437-99-543-195 1359-144 945 77 1571 129 498 41 256-24 353-86-597-299-1708-253-2495-280-508-17-111 257-1090 124-432-59-822-88-1269-145-871-109-3965-672-4594-992l318-225c118-66 176-89 227-103-585 185-714 303-1484 97-801-214-967 31-1100-830l2253 265 1-228 641-69c-571-287-1174 589-1473-381-329 163 43 176-310 126-141-20-156-100-452-154 222 283 217 199 487 399l-1204-89c22-1210 1349-628 2058-458 297 70 533 49 813 105 1916 382 1187 326 3319 559 1183 129 2366 211 3572 315 1195 102 2470 53 3691 157 2435 207 4992 207 7340-198 1089-187 5668-1434 6314-1505-183 147 26 36-303 167l-889 309c641 76 161-37 402 202-408-29-532 79-956 138 219-333-83-114 392-258-819 51-279 322-1068 461-339-6-22-189-699-118-407 42-524 21-779 220l1232-116c-320 260-961 369-1421 463l-135 245c-56 39-327 154-408 195-646 323-509 7-844 309 186 69 406-53 566-119 625-258 4656-1193 4897-1199-90 92-43 68-180 162-1314 899-4661 955-5286 1636 557-22 697-236 1168-297 15 17 33 48 40 56 5 6 29 39 36 46 5 5 22 30 28 34 3 2-212 14 53 20 189 4 61-33 329-90 756-162 819-236 1434-222l1990-597c754-271 1026-216 1236-533l-791 104c241-295 432-247 778-492l-375-203c244-20 2349-719 2437-1120-998-89-752 493-1883 462zM22304 38076l197 44c-319 482-801 2054-1078 2839-258 732-56 355-671 737-791 491-346 362-1599 974-428 209-1584 673-2056 464 621-78 1090-242 1674-439 94-32 204-60 292-100 386-175 72-11 237-154-388-199-1349 352-1916 474-1050 226-3600 753-4536 655-2604-273-6055-816-8336-2039-936-501-875-416-1623-1053l330-1097c10-22 21-50 32-70 84-148 63-86 150-171 458 241 676 842 1163 1017-342-533-627-436-569-1190 410 73 312-43 308 398l163-297 193-1146c436 96 288 157 575 191-147-149-263-256-455-445 44-492 219-926 434-1361 402 57 467 266 727 69-488-192-455 52-611-433-448 44-196 75-554-140l-613-386 242-1673c493-163 244 30 754 1l-676-343 312-2198 175-199 543 241c-35-179-398-318-545-438l423-1706c228 158 322 266 680 311-772-880-778 184-569-1592l261-1617 400 84c-94-207-120-162-309-351l162-904 525 54-371-312 314-1722 307-70c-249-320-198-351-77-884 89-392 124-594 165-1047 337 119 125 161 374 29-502-391-180-831-29-1530 38-9 77-51 90-26l437-51-407-272 127-1136c217 151 93 70 281 251 113 108 145 142 274 208-410-886-672-104-266-1972 135 99 74 36 192 159 197 204 257 354 521 472-120-205-501-660-627-746 127-686 322-1712 492-2365l334-1055c241-471 36-720 597-1009 873 294 1861 629 2843 843 910 199 2249 528 3124 621l2544 272c3344 546 4946 385 8097 328 3294-59 6773-779 9844-1572l464 849c267 335 582 318 1072 307-631 971-1106 755-2212 1168l-853 392c959-127 2084-650 3193-848l-241-216c-16-13-49-37-72-57 442-185 501-448 1075-643l-210 1808c685 202 1599 262 2280-41l301-224c-660 157-1310 272-2026 210-122-241-167-395-195-748 153-167 114-120 269-253-240-519-271-336-182-1097-608 64-50 281-807 274-434-5-518 136-1172 25-169-284-347-585-431-1042 781-93 2160-587 2873-1002l883-585c145 407 884 2198 1074 2421-159 438-116 13-188 419-163 909 208 455-585 1261 663-60 600-627 993-1011 57 705 810 2716 1158 3304l-413 193c-222 77-225 92-479 143-256-283-109-295-360-475l130 665-1548 610-396-787c-182 275 59 558 190 860l-111 91c-315 196-997 344-1164 655l1364-492 1149 2022c-310 302-666 381-874 732l1022-549c167 364 317 477 412 832-238 89-629 164-794 387l991-269 311 667-773 478c167 89 679-208 953-269 179 332 446 657 586 984l-1110 438c580 46 640-191 1215-253 149 162 138 157 260 352 29 46 88 141 113 182l145 275c-290 228-610 321-1015 423-14-24-34-89-39-75-12 31-213-582-392-689 17 31 97 342 122 475 94 511 122 286-116 563 433 61 319-13 463 475 87 293 153 438 213 748l433 1289 9 82c259 330 561 1239 613 1680l-312 271 433-51c76 157 170 340 232 537 136 437 218 355-123 499 534 37 226-60 392 236-79 75-52 61-186 152-147 99-84 30-232 142l527-150 214 448c-61-283-55-178-88-531l1019-358 247 589c-436 305-1009 466-1510 623-562 177-989 414-1567 541 1031 56 2503-880 3034-844 230 16 75 7 192 84-498 348-1321 400-1789 796l600-149 269 256c-90-663 985-667 1114-606l38 312c-418 91-1018 328-1328 596l1296-436 200 439 71-613 429-106c124 113 89-25 212 304 58 155 84 329 107 513-265 73-505 190-760 246-397 87-500-39-877 121-285 121-897 850-974 1109l853-643c280-225 268-255 658-275 225 671 10 880-272 1455l-459 924c-14 26-57 102-70 126-46 83-41 68-103 189 63-23 175-59 208-56 184 17 86 11 190 71-218 333 85 200-330 161-585-56-685-134-1053 415-528-111-1606-285-1140-996 621-946 1424-1141 1480-845 6 34 42 42 50 55l487 865c141-221 22-261-128-521-313-540-247-994-1184-544-369 177-920 893-900 1270 16 317 227 498 418 737-317 245-541 339-778 695-276 802 747 2213 1317 854 151-361 323-506 518-727-406 42-945 759-1108 1092-1001-380-784-1588 409-1773-188 218 10 34-277 237-227 160-87-37-254 230 200-28 362-75 564-141 445-147 231-1 368-314 24 20 59 20 71 62 105 367 969 479 1259 353 96-90 219-225 302-316 647 89 1056 462 1751-881 389-752 1427-848 1602-1426-379 213-1030 770-1465 861-41-734-25-470-312-895 273-99 1236-412 1474-631 141-129 31-20 142-192-534 168-1383 432-1868 759-225 153-84 62-381 212-294 147-433 298-661 442 100-563 267-1200 881-1412l1258-340c47-17 225-85 292-109 359-126 130-62 336-86-251-214-511 22-1070 163-448 113-851 281-1297 327l-107-423 1012-370c156 185 97-33 152 319-7-546-118-303 383-514 348-147 358-113 544-340-392-151-384 179-994 309l-380-1295 511-398-531-99 938-502c334 1151 646 1819 1116 2848 193 422 975 2641 999 3081-275 165-2157 2610-3385 2964 400-698 1380-953 1801-1984-519 58-147 344-1342 1355-2594 2196-4261 2875-7482 3861-2200 674-4674 574-6872 44-240-58-440-116-607-35 144 270 3 150 305 242l1235 238c590 76 1275 186 1875 199 2960 69 5731-813 8341-2082 576-280 916-672 1319-794-166 364-270 353-503 600l945-518c-415 617-1185 845-1839 1324-575 422-1490 638-2167 990 137 61-244 119 225 35 748-133 1540-588 2164-999 2549-1681 1536-1207 3065-2404 1024-802 2203-1551 2878-2688 314 16 139-7 365 148 32-1553-1292-3524-1762-5037-514-1656-1327-3394-1911-4962-413-1107-808-2204-1236-3327l-1299-3270c-931-2126-1794-4426-2512-6633-195-597-362-1113-613-1684l-701-1716 506-191c-92-158 3-29-120-145l-110-95c-12-10-42-30-61-47 257-324 65-570-131-963-215-431-24-169-374-281-636-205 443 239-164-45-205-96-47-99-324-266l-99 401c-1085 376-2004 780-3210 1136-1329 393-5694 1449-7178 1564-2309 178-3942 145-6219-24-2224-166-3312-32-6186-385l-3805-591c-1425-294-2188-650-3497 58 112 536-28 573 160 1193-715 967-888 1916-1201 3148-90 355-34 635-129 973-80 282-149 593-221 877-145 571-241 1210-361 1820-391 1976-935 3774-1358 5714l-362 1321c-287 766-1445 6722-1477 7225-31 474-136 436-235 898l-795 5165c5 270 252 547-52 974-202 284 79 34-326 220 183 944 1144 1167 1994 1640 2446 1358 6091 1980 9000 2065 3 9 8 15 9 26l91 152c1468-211 3150-502 4556-836 1160-275 2858-839 3544-1794l-244-130c342-809 1058-3112 1327-3576 103-176 81-973 598-2179 637-1487 1099-4184 1875-5476 216-359 94-156 277-267 425 292 647 892 929 1397 263 470 491 1081 743 1647 379 849 327 1070 574 1717 210 550 437 861 717 1670 404 1170 917 2139 1410 3260 247 563 794 1974 1129 2443 151 210 148 146 255 348 136 256-18 105 210 384 38-71 250 107-113-600l-898-1889c-200-470-389-819-583-1302-188-470-446-812-618-1277-174-470-340-790-522-1264l-1577-4124 2030-30c-109-263-1894-111-2145-105-137-394-321-699-474-1057 550 43 1449 107 1898-89-455-239-1405-18-1999-74-184-422-673-1231-1065-1427-222 199-262 369-386 706-118 319-184 449-328 763-444 967-872 2359-1111 3351-87 361-120 533-270 845-42 88-158 343-193 401-200 327 51 155-358 258 284 75 110 3 180 272-346 164-580 421-916 564 209-1494 958-1111 1305-1998-295 106-535 504-928 640 126-630 529-2522 887-2923 19 23 52 28 57 72l73 217c12 126-18 229-1 275l268-911c-171 317-20 201-521 237 64-807 199-1238 900-1424-323 5-384 106-646 256-242 138-1569 1002-1462 1192 6 9 38 39 44 47 8 10 38 34 55 53-76 218-455 1754-1184 1425-134 412-189 397-520 592 9 2 100 5 153 12l235 59c-344 1555-499 746-855 1344l586-203-122 874-481 204 389 167c-116 429-669 2564-534 2848 155-369 309-1138 421-1632 126-556 73-1319 629-1539-105 776-1296 4571-1134 4959 258-431-59-487 537-912-361-5-116-16-268-193 317-466 459-1743 651-2401 134-460 292-510 1173-845l-73 473c235-368 125-486 444-784 262-245 496-345 731-449-73 528-342 1320-601 1777z"/><path class="fil0" d="M35315 24840c416-83 885-139 1157-41 264 653-35 800-640 1170l-224 107c-397 72-608-188-609-536-1-373 162-433 316-700zm761-1717c56-1707 1287-2074 1545-1637 288 488-262-181 32 254 124 182-30-18 142 126l55 956c220-89 80-245 352-361 99 885-285 812-860 1510-830 1006-461 47-1503 488-1338 567-632 1022-2015-108-451-368-1417-809-608-1617 454-453 643-749 1251-807l850 2199c335-32 260-56 582-98-178-565-233-611 19-1173 195-70-20-251 158 268zm-503 377l-157-237c-420-695-137-75-517-577-181-239-204-674-366-1008-1430-14-2287 1733-1299 3049l16-110c3-18 11-97 15-121 41-231-35-120 69-269 391 224 844 510 1011 920-1481 48-2774 411-1978 2162 189 417 336 307 500 707 1 2 48 212 69 276 481 27 865-350 1125-631 248-268 684-659 732-1009-304 50-155 30-403 336-139 172-222 275-368 433-231 248-539 557-887 681-219-359 280-128-258-506-320-225-400-162-473-566-120-672 132-1178 507-1478 258 38 159 40 303 116 191 101-77 3 219 148 1-2 222-793 994-165l97-261c190-250-247 94 102-95 18 25 33 37 39 83s29 62 36 83c8 21 23 57 32 83 325 924 862 973 1646 455l336-208c359 437 226 693 461 1083 290 480 502 388 452 1193l-414 355c-400 391-1547 469-2081 463l150-1990c14 26 75-40 138-67 694-302-257 164 208-83-389-161-138-196-584-278-46 484 29 866-33 1331-67 498-249 806-47 1221 319 309 788-170 1548 191 438 208 1154-464 1212-638 281-842-278-1582-406-1850 525 128 742 178 1193-88 658-388 1352-1086 779-1782-120-146-737-661-986-108 432 128 838-188 1097 696-110 379-812 1093-1263 1235-714 225-1127-649-1363-1036 201-436 385-549 61-973l1889-280c659 4 102 133 507 93 14-568-1171-240-1585-181 161-309-5-35 151-235 236-301 382-296 542-666 288-666 422-671 476-1039l-400-205c-541-305-528-1564-1646-938-600 336-1092 1416-1198 2285zM14432 23235c-162 102-336 215-502 293 95-489 89-608 601-562l-99 269zm-1553-2618c-413 274-1692 1122-1724-264 334-320 217-191 582-381-19-15-53-54-60-37-6 13-140-42-238-267 219-108 324-243 707-204 276 29 508 134 730 309-514 378-41-174-1004-76 209 119 845 106 1007 920zm457-1738c141 281 233 26 9 482-298 608 62-294-100 185 325-206 145-243 503-376l704-263c271-31 460 95 630 229 121 96 155 72 192 254 95 460-251-78-14 152-3 651-238 1432-638 1711-706 492-1095-137-1507-333 15-80 686-1246-575-1531-1106-250-1058 179-1581 750-1201 39-1871-557-1504-1454 456-1116 1979-1342 2043-843 16 128 398 1016 654 1177 353-512-318-132 2-2025 938-382 719-772 1525-344 230 123 349 120 472 331 245 423-73 1295-330 1579-187 206-204 239-485 319zm1096 4356c212-117 96 66 216-281-87-49-25-57-215-82-6-1-292-5-307-6-16-555-121-908-291-1243 1409-101 1641-1058 1567-2438-325-341-541-490-1213-443 41-524 133-467 177-684 71-359-28 165-17-252 7-279 319-1044-586-1431-953-408-1880 551-2088 1148-529-39-787-213-1263 11-659 309-1337 996-1207 1725 36 198 137 307 243 431l374 480c-276 252-1020 473-945 1385 41 494 718 1083 1087 1295 243 61 665-165 882-299 342-213 269-126 245-860-424 276 388 789-1004 631-1119-127-1435-1304-145-1498-73-251 61 55-101-144-167-205-130 87-76-122 230-111 168-113 488-97 466 25-16 184 432-10 49 379 5 355 232 552 912 793 1256 247 2176 124-35 521 420 1147 720 1504-147-611-273-592-502-1101 870 314 861 1413 285 1972-1031 1002-3156 501-1999-1473-392 186-466 479-427 1127 24 413 145 797 437 1051l-2-114c1093 226 2586-163 2827-858zM15334 38670c-742 911-455 1453-2090 1176l-194-587c201-223 368-427 657-545 385-158 485 47 618-380 100-320-300-70 169-321 170-91 69-54 224-45 191 12 517 288 697 414l814-222c10 15 13 43 15 51 181 567 254 297 623 523 18 11 43 27 60 40 314 240 402 662 228 982-478 282-915-24-1545 231l122-1179c-339 215-99 747-281 1238-249-264 6-345-64-849l-47-429c0-7-2-28-2-49s5-35-4-49zm-302-702c214-425 166-10 251-318 45-160-30-210-67-379 349-26 571-32 927 199-41 447-137 473-407 718l-704-220zm-552-1746l59-391c553 171 709 425 724 1083-732 365-650 1233-1744 493 91-311 166-354 328-534h-412c188-303 197-239 669-332-168-336-473-4-131-338 219-214 326-95 507 19zm2068-1534c18 15 53 6 62 35 9 30 937 327 352 1189-162 238-451 507-536 933-43 218-74 26 26 309 458-127 651-536 1368-693l26 203c-1 8-6 37-7 44l-19 81c353-170 228-163 664-75 77 579-593 1280-873 1720-804-29-685-236-1238-426 56-1068-154-845-840-1181-16-26-34-97-40-81-6 15-30-60-38-80-396-962-973-1755-1940-228-405 641-357 438-252 1429 269 120 359 181 607 359-21 20-57 16-70 53-24 72-1115 564-1193 725-92 1021 288 800 838 1332 968-453 904-67 1267-11 149-402 45-624 505-757l-176 577c289 198 178 39 393 293 499-155 21-200 742-166 1038 48 1504-451 1042-1510 423-210 1106-205 1318-1281 69-353 182-305 151-788-876-846-1197-324-1976 73 211-622 469-273 640-1270 123-716-556-1066-803-808zM32965 40561c326-219 601-264 989-320 116 539 362 743 490 1226l-929 296-550-1202zm-1623-3399c-491 118-682 175-1231 110l-465-1074c-149 290 245 1083 477 1212 471 214 812 26 1324-27l487 1306-769 136c291 218 545 85 890 32l603 1493-883 232c471 176 494 16 962-10 178 217 240 467 366 723 189 387 289 371 21 655 603 37 88-106 769 761l-283-795 918-278c116 91 329 732 1543 167 311-146 146-70 261-165-869 73-1235 410-1554 44 28-279 397-213 900-536-222-120-652 150-1062 204-168-363-431-763-515-1205l453-280c-141 10-334 69-524 94l-341-359c-55 177 22 237 91 470l-973 223-601-1428c138-107-63-16 280-161 687-290 1714-297 2183-689l-2586 557-464-1198c267-150 627-210 932-289 793-207 759-122 875-396l-1874 435c-243-405-146-653-307-992-372 68-302 52-165 395 107 269 192 374 262 633zM27168 16176c362-16 559 101 821 195-209 855 123 929-722 1103-140-210-344-607-398-815l299-483zm-1392 587c74-198-61-264-133-448-371-949 560-776 1181-652-90 382-119 287-245 558-106 228-88-99-77 251 10 324 18 18 106 217 424 961 370 187 366 905-347 211-729 308-900-207 132-239-16-63 183-151l196-34c-283-186-72-152-450-181-103 325-109 457-29 780 860 374 719 61 1510-16 57 1582-1111 328-1112 328-550 400-75 707-795 1012-314-171-312-173-398-437-1-3-61-186-69-255-16-123-78 53-2-215 125-441 7-84 171-225l376-308c-446-142-418-54-827-259 100-371 11-204 244-447 367-383 91 172 317-325-367 41-634 131-892 335 79 414 146 274 600 795-113 353-220 454-109 890 96 377 294 559 589 728 398-200 477-472 745-781l167 41c328 110 369 183 771 184 720-792 253-954 538-1329 116-152 3 35 145-142 946-1180-544-1339-841-1616 0 0-393-673-1293-422-687 192-379 780-292 1023 196 550-110 297 259 403zM46057 37668c222 310 217 241 33 627-12-10-220 69-247-346-23-354-25-137 214-281zm-153 796c-23 18-56 17-69 53l-653 259c-950 367-913 109-1067-678-4-19-16-53-19-68-3-14-14-41-23-61-234 437 27 885 299 1165 479 26 788-185 1195-288l-452 516c396 61 1247-1028 1301-1569-329-179-75-25-126-184-388-14-334 51-533 46-224-7-141-64-479-91 306 599 139-346 626 900z"/><path class="fil0" d="M15919 36551c-11-401-206-635-310-975-20 68 22 255-91 426-73-145-342-489-374-647-47-235 46-969 190-339l275-443 568-38c-320-361-92-173-47-263 452-112 632 70 938 205-637-1068-1834 112-1913 226-418 604 369 1704 764 1848zM28958 34595c55 232 114 420 186 616 26 72 80 195 114 274 129 300 18 2 142 351-440-19-305 8-640-157 281 583 839 458 1717 231 569-148 1294-320 1662-626-912 77-1737 649-2640 555l-380-944c-102-234 36-33-161-300zM39543 13289c-142 101 68 3-246 123l-216 71c-12 5-39 15-56 26 341 237 850-65 1303-364 138-90 82-58 173-155-605 25-1899 454-2095-482-82-389 139-73-126-390-369 779 515 1151 1263 1171zM37562 17592c453-128 2641-1141 2879-1398-208-106-1049 388-1397 537-418 179-1261 515-1482 861zM31897 41317c-103-433-615-1299-818-1799-182-451-615-1663-940-1888 194 802 1350 3129 1758 3687zM27635 33026c676 161 2284-101 2780-450-257-100-1287 268-2357 324-556 29-198-43-423 126zM32955 14476c768-260 1904-643 2623-1066-48-29 81-184-633 120-588 250-1818 633-1990 946zM34478 16492c137 59 2299-622 2708-796 0 0 143-252-668 2l-2040 794zM28958 34595c-19-332 229-188 1132-385 699-153 953-66 1299-363l-2428 368-3 380zM47320 36890c395-130 1043-517 1206-814-309 49-249 109-614 358l-422 280c-123 103-80 72-170 176zM9361 15357c-125-222-95-90-365-281-218-154-149-162-406-274 199 383 361 432 771 555zM22304 38076c-292 108-718 490-905 679 260-74 781-496 905-679zM9580 13803c-167-239-236-243-526-316 108 125-5 75 229 204 44 25 222 85 297 112zM9598 12873c59-405 63-367-234-462l234 462z"/></svg>
